<svg width="39" height="36" viewBox="0 0 39 36" fill="none" xmlns="http://www.w3.org/2000/svg">
<rect width="39" height="36" rx="18" fill="#0F282E"/>
<mask id="mask0_67_452" style="mask-type:alpha" maskUnits="userSpaceOnUse" x="7" y="6" width="25" height="24">
<rect x="7.5" y="6" width="24" height="24" fill="#D9D9D9"/>
</mask>
<g mask="url(#mask0_67_452)">
<path d="M23.5 17V14H20.5V12H23.5V9H25.5V12H28.5V14H25.5V17H23.5ZM27.45 27C25.3667 27 23.3083 26.5458 21.275 25.6375C19.2417 24.7292 17.3917 23.4417 15.725 21.775C14.0583 20.1083 12.7708 18.2583 11.8625 16.225C10.9542 14.1917 10.5 12.1333 10.5 10.05C10.5 9.75 10.6 9.5 10.8 9.3C11 9.1 11.25 9 11.55 9H15.6C15.8333 9 16.0417 9.07917 16.225 9.2375C16.4083 9.39583 16.5167 9.58333 16.55 9.8L17.2 13.3C17.2333 13.5667 17.225 13.7917 17.175 13.975C17.125 14.1583 17.0333 14.3167 16.9 14.45L14.475 16.9C14.8083 17.5167 15.2042 18.1125 15.6625 18.6875C16.1208 19.2625 16.625 19.8167 17.175 20.35C17.6917 20.8667 18.2333 21.3458 18.8 21.7875C19.3667 22.2292 19.9667 22.6333 20.6 23L22.95 20.65C23.1 20.5 23.2958 20.3875 23.5375 20.3125C23.7792 20.2375 24.0167 20.2167 24.25 20.25L27.7 20.95C27.9333 21.0167 28.125 21.1375 28.275 21.3125C28.425 21.4875 28.5 21.6833 28.5 21.9V25.95C28.5 26.25 28.4 26.5 28.2 26.7C28 26.9 27.75 27 27.45 27ZM13.525 15L15.175 13.35L14.75 11H12.525C12.6083 11.6833 12.725 12.3583 12.875 13.025C13.025 13.6917 13.2417 14.35 13.525 15ZM22.475 23.95C23.125 24.2333 23.7875 24.4583 24.4625 24.625C25.1375 24.7917 25.8167 24.9 26.5 24.95V22.75L24.15 22.275L22.475 23.95Z" fill="white"/>
</g>
</svg>
