<svg width="40" height="36" viewBox="0 0 40 36" fill="none" xmlns="http://www.w3.org/2000/svg">
<rect x="0.5" width="39" height="36" rx="18" fill="#0F282E"/>
<path d="M26.73 11.4101L25.45 12.4101L20 16.4601L14.55 12.3701L13.27 11.3701C12.9685 11.1206 12.6004 10.9651 12.2113 10.9228C11.8222 10.8806 11.4293 10.9533 11.0812 11.1322C10.7331 11.311 10.4451 11.5881 10.253 11.929C10.0608 12.2699 9.97282 12.6597 10 13.0501V24.6401C10 25.0008 10.1433 25.3467 10.3983 25.6018C10.6534 25.8568 10.9993 26.0001 11.36 26.0001H14.55V18.2801L20 22.3701L25.45 18.2801V26.0001H28.64C29.0007 26.0001 29.3466 25.8568 29.6017 25.6018C29.8567 25.3467 30 25.0008 30 24.6401V13.0501C30.0188 12.6631 29.9247 12.2789 29.7293 11.9443C29.5338 11.6097 29.2453 11.3391 28.899 11.1654C28.5526 10.9917 28.1632 10.9224 27.7782 10.9658C27.3931 11.0092 27.029 11.1636 26.73 11.4101Z" fill="white"/>
</svg>
