<svg width="39" height="37" viewBox="0 0 39 37" fill="none" xmlns="http://www.w3.org/2000/svg">
<rect y="0.5" width="39" height="36" rx="18" fill="#0F282E"/>
<mask id="mask0_280_74" style="mask-type:alpha" maskUnits="userSpaceOnUse" x="7" y="6" width="25" height="25">
<rect x="7.5" y="6.5" width="24" height="24" fill="#D9D9D9"/>
</mask>
<g mask="url(#mask0_280_74)">
<path d="M18.45 22.05L24.1 16.4L22.675 14.975L18.45 19.2L16.35 17.1L14.925 18.525L18.45 22.05ZM19.5 28.5C17.1833 27.9167 15.2708 26.5875 13.7625 24.5125C12.2542 22.4375 11.5 20.1333 11.5 17.6V11.5L19.5 8.5L27.5 11.5V17.6C27.5 20.1333 26.7458 22.4375 25.2375 24.5125C23.7292 26.5875 21.8167 27.9167 19.5 28.5ZM19.5 26.4C21.2333 25.85 22.6667 24.75 23.8 23.1C24.9333 21.45 25.5 19.6167 25.5 17.6V12.875L19.5 10.625L13.5 12.875V17.6C13.5 19.6167 14.0667 21.45 15.2 23.1C16.3333 24.75 17.7667 25.85 19.5 26.4Z" fill="white"/>
</g>
</svg>
